<svg id="FIAT" xmlns="http://www.w3.org/2000/svg" viewBox="0 0 555.61293 420.69841">
  <title>FIAT-LOGO</title>
  <path d="M188.25961,110.03541h60.35085V530.73382H188.25961Zm258.71532,0v50.76074h46.78945V530.73382h58.47326V160.79615H598.268V110.03541ZM42.65507,530.73382h58.47481V339.87506h49.801V289.80989h-49.801V160.79615h64.96737V110.03541H42.65507ZM454.727,503.17571q.01858,13.82864.01549,27.55811H400.0476q-.072-23.873-.10844-47.98231c-.04492-16.04781-.12083-32.1235-.29434-48.1442-.34546-32.01041-1.07977-63.89534-2.75287-94.73225h-64.3291V530.73382H280.043V110.03541H403.44492a314.79248,314.79248,0,0,1,18.95559,44.95679,441.48955,441.48955,0,0,1,13.19735,48.70654c3.58477,16.748,6.43523,34.01736,8.72645,51.58877,2.29121,17.566,4.034,35.53864,5.38025,53.67162,1.34623,18.12369,2.30516,36.56186,3.00228,55.01785.69713,18.43739,1.14174,37.1366,1.433,55.69483.29124,18.5133.43687,37.3225.51432,55.76532Q454.71224,489.34128,454.727,503.17571ZM393.16621,289.80989c-4.70017-48.10237-12.762-92.62384-26.72156-129.01374h-33.8818V289.80989Z" transform="translate(-42.65507 -110.03541)"/>
</svg>
